<?xml version="1.0" encoding="UTF-8" standalone="no"?>
<svg
   width="64"
   height="64"
   viewBox="0 0 64 64"
   fill="none"
   version="1.1"
   id="svg4"
   sodipodi:docname="icon.svg"
   inkscape:version="1.2.2 (732a01da63, 2022-12-09)"
   xmlns:inkscape="http://www.inkscape.org/namespaces/inkscape"
   xmlns:sodipodi="http://sodipodi.sourceforge.net/DTD/sodipodi-0.dtd"
   xmlns="http://www.w3.org/2000/svg"
   xmlns:svg="http://www.w3.org/2000/svg">
  <defs
     id="defs8" />
  <sodipodi:namedview
     id="namedview6"
     pagecolor="#ffffff"
     bordercolor="#000000"
     borderopacity="0.25"
     inkscape:showpageshadow="2"
     inkscape:pageopacity="0.0"
     inkscape:pagecheckerboard="0"
     inkscape:deskcolor="#d1d1d1"
     showgrid="false"
     inkscape:zoom="10.538372"
     inkscape:cx="37.244842"
     inkscape:cy="34.018537"
     inkscape:window-width="3840"
     inkscape:window-height="2050"
     inkscape:window-x="-12"
     inkscape:window-y="-12"
     inkscape:window-maximized="1"
     inkscape:current-layer="svg4" />
  <path
     fill-rule="evenodd"
     clip-rule="evenodd"
     d="M 64,15.5 C 64,8.87258 58.6274,3.5 52,3.5 H 6.1903 c -1.10457,0 -2,0.89543 -2,2 0,1.10457 0.89543,2 2,2 H 52 c 4.4183,0 8,3.58172 8,8 v 33 c 0,4.4183 -3.5817,8 -8,8 H 12 c -4.41828,0 -8,-3.5817 -8,-8 V 20.2324 C 4,18.4595 6.13598,17.5632 7.40113,18.8053 L 29.1737,40.1804 c 1.1576,1.1365 3.009,1.1469 4.1793,0.0234 L 54.3193,20.0761 c 0.7968,-0.7649 0.8227,-2.031 0.0577,-2.8278 -0.7649,-0.7969 -2.031,-0.8227 -2.8278,-0.0577 L 31.2832,36.6459 10.2034,15.9509 C 6.40792,12.22473 0,14.9136 0,20.2324 V 48.5 c 0,6.6274 5.37259,12 12,12 h 40 c 6.6274,0 12,-5.3726 12,-12 z"
     fill="#1e4391"
     id="path2" />
</svg>
