<svg width="20" height="20" viewBox="0 0 20 20" fill="none" xmlns="http://www.w3.org/2000/svg">
<g clip-path="url(#clip0_692_3798)">
<path fill-rule="evenodd" clip-rule="evenodd" d="M4 6C4.55228 6 5 6.44772 5 7V16C5 17.1046 5.89543 18 7 18H13C14.1046 18 15 17.1046 15 16V7C15 6.44772 15.4477 6 16 6C16.5523 6 17 6.44772 17 7V16C17 18.2091 15.2091 20 13 20H7C4.79086 20 3 18.2091 3 16V7C3 6.44772 3.44772 6 4 6Z" fill="#EF302B"/>
<path d="M7 8C7 7.44771 7.44772 7 8 7V7C8.55228 7 9 7.44772 9 8V15.4405C9 15.9928 8.55228 16.4405 8 16.4405V16.4405C7.44772 16.4405 7 15.9928 7 15.4405V8Z" fill="#EF302B"/>
<path d="M11 8C11 7.44771 11.4477 7 12 7C12.5523 7 13 7.44772 13 8V15.4405C13 15.9928 12.5523 16.4405 12 16.4405C11.4477 16.4405 11 15.9928 11 15.4405V8Z" fill="#EF302B"/>
<path d="M1 4C1 3.44772 1.44772 3 2 3H18C18.5523 3 19 3.44772 19 4V4C19 4.55228 18.5523 5 18 5H2C1.44772 5 1 4.55228 1 4V4Z" fill="#EF302B"/>
<path fill-rule="evenodd" clip-rule="evenodd" d="M8.80957 2.00012C8.25729 2.00012 7.80957 2.44784 7.80957 3.00012V3.54179H5.80957V3.00012C5.80957 1.34327 7.15272 0.00012207 8.80957 0.00012207H10.8006C12.4575 0.00012207 13.8006 1.34327 13.8006 3.00012V3.54179H11.8006V3.00012C11.8006 2.44784 11.3529 2.00012 10.8006 2.00012H8.80957Z" fill="#EF302B"/>
</g>
<defs>
<clipPath id="clip0_692_3798">
<rect width="20" height="20" fill="white"/>
</clipPath>
</defs>
</svg>
