<svg width="20" height="20" viewBox="0 0 20 20" fill="none" xmlns="http://www.w3.org/2000/svg">
<g clip-path="url(#clip0_1804_4186)">
<path fill-rule="evenodd" clip-rule="evenodd" d="M4 4C2.89543 4 2 4.89543 2 6V16C2 17.1046 2.89543 18 4 18H16C17.1046 18 18 17.1046 18 16V6C18 4.89543 17.1046 4 16 4H4ZM0 6C0 3.79086 1.79086 2 4 2H16C18.2091 2 20 3.79086 20 6V16C20 18.2091 18.2091 20 16 20H4C1.79086 20 0 18.2091 0 16V6Z" fill="#1E4391"/>
<path d="M5 1C5 0.447715 5.44772 0 6 0C6.55228 0 7 0.447715 7 1V5C7 5.55228 6.55228 6 6 6C5.44772 6 5 5.55228 5 5V1Z" fill="#1E4391"/>
<path d="M13 1C13 0.447715 13.4477 0 14 0C14.5523 0 15 0.447715 15 1V5C15 5.55228 14.5523 6 14 6C13.4477 6 13 5.55228 13 5V1Z" fill="#1E4391"/>
<path d="M3 9C3 8.44772 3.44772 8 4 8H16C16.5523 8 17 8.44772 17 9C17 9.55228 16.5523 10 16 10H4C3.44772 10 3 9.55228 3 9Z" fill="#1E4391"/>
</g>
<defs>
<clipPath id="clip0_1804_4186">
<rect width="20" height="20" fill="white"/>
</clipPath>
</defs>
</svg>
