<svg width="22" height="22" viewBox="0 0 22 22" fill="none" xmlns="http://www.w3.org/2000/svg">
<g clip-path="url(#clip0_697_3798)">
<path d="M1.78002 16.974C2.88947 19.1272 6.50883 20.5423 7.64147 20.941C7.86351 21.0191 8.10466 21.0201 8.32772 20.9446C9.49047 20.5511 13.2621 19.1339 14.3749 16.974C15.4619 14.8645 15.0151 10.1006 14.8223 8.47672C14.7808 8.1275 14.5511 7.83022 14.2006 7.71194C13.281 7.40159 11.2086 6.85742 7.98348 6.85742C4.77911 6.85742 2.71272 7.39463 1.78426 7.70594C1.42341 7.82691 1.19109 8.13716 1.15855 8.49738C1.0101 10.1407 0.697609 14.8733 1.78002 16.974Z" stroke="#545454" stroke-width="2"/>
<path d="M10.0233 15.9092C10.0233 15.9092 9.43255 16.9741 7.95552 16.9741C6.4785 16.9741 5.8877 15.9092 5.8877 15.9092" stroke="#545454" stroke-width="2" stroke-linecap="round"/>
<path d="M4.38379 13.0693C4.38379 13.0693 4.75975 12.3594 5.69967 12.3594C6.63959 12.3594 7.01556 13.0693 7.01556 13.0693" stroke="#545454" stroke-width="2" stroke-linecap="round"/>
<path d="M9.27148 13.0693C9.27148 13.0693 9.64745 12.3594 10.5873 12.3594C11.5272 12.3594 11.9032 13.0693 11.9032 13.0693" stroke="#545454" stroke-width="2" stroke-linecap="round"/>
<path d="M17.3357 13.9565C18.4227 11.8469 17.9759 7.08302 17.7831 5.45914C17.7416 5.10992 17.5119 4.81264 17.1614 4.69436C16.2418 4.38401 14.1694 3.83984 10.9443 3.83984C7.73994 3.83984 5.67354 4.37705 4.74509 4.68836C4.38423 4.80934 4.15192 5.11958 4.11937 5.4798C4.07903 5.92645 4.15265 6.24635 4.11936 7.03457" stroke="#545454" stroke-width="2" stroke-linecap="round"/>
<path d="M20.2962 11.1166C21.3832 9.00704 20.9363 4.24318 20.7435 2.6193C20.7021 2.27008 20.4724 1.97279 20.1219 1.85452C19.2022 1.54417 17.1298 1 13.9047 1C10.7004 1 8.634 1.53721 7.70554 1.84852C7.34469 1.96949 7.11237 2.27974 7.07983 2.63996C7.03948 3.0866 7.11311 3.22902 7.07983 4.01724" stroke="#545454" stroke-width="2" stroke-linecap="round"/>
</g>
<defs>
<clipPath id="clip0_697_3798">
<rect width="22" height="22" fill="white"/>
</clipPath>
</defs>
</svg>
