<svg width="20" height="20" viewBox="0 0 20 20" fill="none" xmlns="http://www.w3.org/2000/svg">
<path d="M9.90004 14.9997C8.10004 14.9997 7.00004 13.8997 6.70004 13.2997C6.40004 12.7997 6.60004 12.1997 7.10004 11.8997C7.60004 11.5997 8.20004 11.7997 8.50004 12.2997C8.50004 12.3997 9.00004 12.9997 10 12.9997C11 12.9997 11.4 12.3997 11.5 12.2997C11.8 11.7997 12.4 11.6997 12.9 11.8997C13.4 12.1997 13.5 12.7997 13.3 13.1997C12.8 13.8997 11.7 14.9997 9.90004 14.9997Z" fill="#545454"/>
<path d="M8.79991 10.5998C8.39991 10.5998 8.09991 10.3998 7.89991 10.0998C7.89991 10.0998 7.69991 9.7998 7.29991 9.7998C6.89991 9.7998 6.69991 10.0998 6.69991 10.0998C6.39991 10.5998 5.79991 10.6998 5.29991 10.4998C4.89991 10.0998 4.69991 9.5998 4.99991 9.0998C5.19991 8.5998 5.99991 7.7998 7.29991 7.7998C8.59991 7.7998 9.39991 8.5998 9.69991 9.0998C9.99991 9.5998 9.79991 10.1998 9.29991 10.4998C9.19991 10.4998 8.99991 10.5998 8.79991 10.5998Z" fill="#545454"/>
<path d="M14.3998 10.5998C13.9998 10.5998 13.6998 10.3998 13.4998 10.0998C13.4998 10.0998 13.2998 9.7998 12.8998 9.7998C12.4998 9.7998 12.2998 10.0998 12.2998 10.0998C11.9998 10.5998 11.3998 10.7998 10.8998 10.4998C10.3998 10.1998 10.1998 9.5998 10.4998 9.0998C10.7998 8.5998 11.5998 7.7998 12.8998 7.7998C14.1998 7.7998 14.9998 8.5998 15.2998 9.0998C15.5998 9.5998 15.3998 10.1998 14.8998 10.4998C14.6998 10.4998 14.5998 10.5998 14.3998 10.5998Z" fill="#545454"/>
<path d="M9.89996 19.6C9.69996 19.6 9.39996 19.6 9.19996 19.5C7.49996 18.9 3.39996 17.2 1.99996 14.5C0.699957 12 0.899957 7 1.19996 4.3C1.29996 3.5 1.79996 2.8 2.59996 2.5C3.69996 2.1 6.19996 1.5 9.99996 1.5C13.8 1.5 16.3 2.1 17.4 2.5C18.2 2.8 18.7 3.4 18.8 4.2C19.1 6.4 19.5 11.8 18.2 14.4C16.8 17.1 12.5 18.8 10.8 19.4C10.4 19.5 10.2 19.6 9.89996 19.6ZM3.79996 13.5C4.69996 15.2 7.49996 16.7 9.89996 17.5H9.99996C12.5 16.7 15.4 15.2 16.3 13.5C17.2 11.8 17.1 7.7 16.7 4.4C15.6 4 13.4 3.4 9.89996 3.4C6.39996 3.4 4.19996 4 3.19996 4.3C2.89996 7.7 2.89996 11.8 3.79996 13.5Z" fill="#545454"/>
</svg>
