<svg width="20" height="20" viewBox="0 0 20 20" fill="none" xmlns="http://www.w3.org/2000/svg">
<path fill-rule="evenodd" clip-rule="evenodd" d="M1 5C1 3.89543 1.89543 3 3 3H7.71429V5H3V18H11V15.5H13V18C13 19.1046 12.1046 20 11 20H3C1.89543 20 1 19.1046 1 18V5Z" fill="#545454"/>
<path fill-rule="evenodd" clip-rule="evenodd" d="M8.1 0H16.9C18.0598 0 19 0.940195 19 2.1V14.9C19 16.0598 18.0598 17 16.9 17H8.1C6.94021 17 6 16.0598 6 14.9V2.1C6 0.940212 6.94019 0 8.1 0ZM8.1 2C8.04477 2 8 2.04477 8 2.1V14.9C8 14.9552 8.04477 15 8.1 15H16.9C16.9552 15 17 14.9552 17 14.9V2.1C17 2.04477 16.9552 2 16.9 2H8.1Z" fill="#545454"/>
<path fill-rule="evenodd" clip-rule="evenodd" d="M9 8.09143C9 7.53915 9.44772 7.09143 10 7.09143H15C15.5523 7.09143 16 7.53915 16 8.09143C16 8.64372 15.5523 9.09143 15 9.09143H10C9.44772 9.09143 9 8.64372 9 8.09143Z" fill="#545454"/>
<path fill-rule="evenodd" clip-rule="evenodd" d="M9 5.09143C9 4.53915 9.44772 4.09143 10 4.09143H15C15.5523 4.09143 16 4.53915 16 5.09143C16 5.64372 15.5523 6.09143 15 6.09143H10C9.44772 6.09143 9 5.64372 9 5.09143Z" fill="#545454"/>
<path fill-rule="evenodd" clip-rule="evenodd" d="M9 11.0914C9 10.5391 9.44772 10.0914 10 10.0914H15C15.5523 10.0914 16 10.5391 16 11.0914C16 11.6437 15.5523 12.0914 15 12.0914H10C9.44772 12.0914 9 11.6437 9 11.0914Z" fill="#545454"/>
</svg>
