<svg width="22" height="22" viewBox="0 0 22 22" fill="none" xmlns="http://www.w3.org/2000/svg">
<path d="M1.78002 16.974C2.88947 19.1272 6.50883 20.5423 7.64147 20.941C7.86351 21.0191 8.10466 21.0201 8.32772 20.9446C9.49047 20.5511 13.2621 19.1339 14.3749 16.974C15.4619 14.8645 15.0151 10.1006 14.8223 8.47672C14.7808 8.1275 14.5511 7.83022 14.2006 7.71194C13.281 7.40159 11.2086 6.85742 7.98348 6.85742C4.77911 6.85742 2.71272 7.39463 1.78426 7.70594C1.42341 7.82691 1.19109 8.13716 1.15855 8.49738C1.0101 10.1407 0.697609 14.8733 1.78002 16.974Z" stroke="#1E4391" stroke-width="2"/>
<path d="M10.0232 15.9092C10.0232 15.9092 9.43242 16.9741 7.95539 16.9741C6.47837 16.9741 5.88757 15.9092 5.88757 15.9092" stroke="#1E4391" stroke-width="2" stroke-linecap="round"/>
<path d="M4.38367 13.0693C4.38367 13.0693 4.75963 12.3594 5.69955 12.3594C6.63947 12.3594 7.01544 13.0693 7.01544 13.0693" stroke="#1E4391" stroke-width="2" stroke-linecap="round"/>
<path d="M9.27124 13.0693C9.27124 13.0693 9.64721 12.3594 10.5871 12.3594C11.527 12.3594 11.903 13.0693 11.903 13.0693" stroke="#1E4391" stroke-width="2" stroke-linecap="round"/>
<path d="M17.3356 13.9565C18.4226 11.8469 17.9758 7.08302 17.783 5.45914C17.7415 5.10992 17.5118 4.81264 17.1613 4.69436C16.2417 4.38401 14.1693 3.83984 10.9442 3.83984C7.73982 3.83984 5.67342 4.37705 4.74497 4.68836C4.38411 4.80934 4.1518 5.11958 4.11925 5.4798C4.07891 5.92645 4.15253 6.24635 4.11924 7.03457" stroke="#1E4391" stroke-width="2" stroke-linecap="round"/>
<path d="M20.2964 11.1166C21.3834 9.00704 20.9365 4.24318 20.7437 2.6193C20.7023 2.27008 20.4726 1.97279 20.1221 1.85452C19.2024 1.54417 17.13 1 13.9049 1C10.7006 1 8.63418 1.53721 7.70572 1.84852C7.34487 1.96949 7.11255 2.27974 7.08001 2.63996C7.03966 3.0866 7.11329 3.22902 7.08001 4.01724" stroke="#1E4391" stroke-width="2" stroke-linecap="round"/>
</svg>
