<svg width="20" height="20" viewBox="0 0 20 20" fill="none" xmlns="http://www.w3.org/2000/svg">
<path d="M2.88674 14.0007C4.14796 16.4484 8.26247 18.0571 9.55007 18.5103C9.80249 18.5991 10.0766 18.6003 10.3302 18.5144C11.652 18.0671 15.9396 16.4559 17.2047 14.0007C18.4404 11.6025 17.9324 6.18687 17.7132 4.34083C17.6661 3.94384 17.405 3.60588 17.0066 3.47142C15.9611 3.11861 13.6052 2.5 9.93888 2.5C6.29612 2.5 3.94703 3.11071 2.89156 3.4646C2.48133 3.60213 2.21724 3.95481 2.18024 4.36432C2.01148 6.23243 1.65624 11.6126 2.88674 14.0007Z" stroke="#1E4391" stroke-width="2"/>
<path d="M12.2581 12.79C12.2581 12.79 11.5865 14.0006 9.90742 14.0006C8.22832 14.0006 7.5567 12.79 7.5567 12.79" stroke="#1E4391" stroke-width="2" stroke-linecap="round"/>
<path d="M5.84668 9.56195C5.84668 9.56195 6.27408 8.75488 7.34259 8.75488C8.4111 8.75488 8.8385 9.56195 8.8385 9.56195" stroke="#1E4391" stroke-width="2" stroke-linecap="round"/>
<path d="M11.4034 9.56195C11.4034 9.56195 11.8308 8.75488 12.8994 8.75488C13.9679 8.75488 14.3953 9.56195 14.3953 9.56195" stroke="#1E4391" stroke-width="2" stroke-linecap="round"/>
</svg>
