<?xml version="1.0" encoding="UTF-8"?>
<!DOCTYPE svg PUBLIC "-//W3C//DTD SVG 1.1//EN" "http://www.w3.org/Graphics/SVG/1.1/DTD/svg11.dtd">
<svg xmlns="http://www.w3.org/2000/svg" version="1.1" width="16px" height="16px" style="shape-rendering:geometricPrecision; text-rendering:geometricPrecision; image-rendering:optimizeQuality; fill-rule:evenodd; clip-rule:evenodd" xmlns:xlink="http://www.w3.org/1999/xlink">
<g><path style="opacity:1" fill="#1b3a7e" d="M 4.5,-0.5 C 7.16667,-0.5 9.83333,-0.5 12.5,-0.5C 12.5,-0.166667 12.5,0.166667 12.5,0.5C 12.5,1.83333 11.8333,2.5 10.5,2.5C 8.5,1.83333 6.5,1.16667 4.5,0.5C 4.5,0.166667 4.5,-0.166667 4.5,-0.5 Z"/></g>
<g><path style="opacity:1" fill="#142245" d="M 4.5,0.5 C 6.5,1.16667 8.5,1.83333 10.5,2.5C 7.81198,2.1658 5.47865,2.83247 3.5,4.5C 3.59121,2.30228 2.92454,1.96895 1.5,3.5C 1.5,1.5 2.5,0.5 4.5,0.5 Z"/></g>
<g><path style="opacity:1" fill="#152d60" d="M 3.5,4.5 C 3.5,5.83333 3.5,7.16667 3.5,8.5C 2.71003,7.39147 2.21003,6.05814 2,4.5C 1.50649,6.13414 1.33982,7.80081 1.5,9.5C 0.166667,7.5 0.166667,5.5 1.5,3.5C 2.92454,1.96895 3.59121,2.30228 3.5,4.5 Z"/></g>
<g><path style="opacity:0.878" fill="#162956" d="M 12.5,0.5 C 13.5,1.16667 14.5,1.83333 15.5,2.5C 15.5,3.16667 15.5,3.83333 15.5,4.5C 14.6043,3.49367 13.9377,3.49367 13.5,4.5C 13.1667,4.5 12.8333,4.5 12.5,4.5C 11.5,4.16667 10.8333,3.5 10.5,2.5C 11.8333,2.5 12.5,1.83333 12.5,0.5 Z"/></g>
<g><path style="opacity:1" fill="#1b3e86" d="M 15.5,4.5 C 15.5,6.16667 15.5,7.83333 15.5,9.5C 13.744,8.44787 13.0773,6.78121 13.5,4.5C 13.9377,3.49367 14.6043,3.49367 15.5,4.5 Z"/></g>
<g><path style="opacity:1" fill="#1c408b" d="M 3.5,8.5 C 3.16667,9.16667 2.83333,9.83333 2.5,10.5C 2.16667,10.5 1.83333,10.5 1.5,10.5C 1.5,10.1667 1.5,9.83333 1.5,9.5C 1.33982,7.80081 1.50649,6.13414 2,4.5C 2.21003,6.05814 2.71003,7.39147 3.5,8.5 Z"/></g>
<g><path style="opacity:1" fill="#18336d" d="M 3.5,8.5 C 4.91104,10.539 6.91104,11.539 9.5,11.5C 8.16667,12.1667 6.83333,12.8333 5.5,13.5C 4.83333,13.5 4.16667,13.5 3.5,13.5C 2.76109,13.631 2.09442,13.4643 1.5,13C 2.25244,12.3292 2.58577,11.4959 2.5,10.5C 2.83333,9.83333 3.16667,9.16667 3.5,8.5 Z"/></g>
<g><path style="opacity:0.98" fill="#142145" d="M 12.5,4.5 C 12.8333,4.5 13.1667,4.5 13.5,4.5C 13.0773,6.78121 13.744,8.44787 15.5,9.5C 15.5,9.83333 15.5,10.1667 15.5,10.5C 14.7638,12.2294 13.4305,13.2294 11.5,13.5C 13.0311,12.0755 12.6977,11.4088 10.5,11.5C 12.1675,9.52135 12.8342,7.18802 12.5,4.5 Z"/></g>
<g><path style="opacity:1" fill="#193572" d="M 9.5,11.5 C 9.83333,11.5 10.1667,11.5 10.5,11.5C 12.6977,11.4088 13.0311,12.0755 11.5,13.5C 9.5,14.8333 7.5,14.8333 5.5,13.5C 6.83333,12.8333 8.16667,12.1667 9.5,11.5 Z"/></g>
<g><path style="opacity:0.827" fill="#182a59" d="M 1.5,10.5 C 1.83333,10.5 2.16667,10.5 2.5,10.5C 2.58577,11.4959 2.25244,12.3292 1.5,13C 2.09442,13.4643 2.76109,13.631 3.5,13.5C 3.16667,14.1667 2.83333,14.8333 2.5,15.5C 1.5,15.5 0.5,15.5 -0.5,15.5C -0.5,14.5 -0.5,13.5 -0.5,12.5C 0.5,12.1667 1.16667,11.5 1.5,10.5 Z"/></g>
</svg>
